<svg xmlns="http://www.w3.org/2000/svg" width="27.142" height="24.528" viewBox="0 0 27.142 24.528"><g transform="translate(-1288.5 -133.639)"><rect width="21" height="16" transform="translate(1292 138.961)" fill="#f3f3f3"/><g transform="translate(1286 131.139)"><path d="M21.565,17.383A4.183,4.183,0,1,1,17.383,13.2,4.183,4.183,0,0,1,21.565,17.383Z" transform="translate(-1.312 -1.312)" fill="#235abf" stroke="#f3f3f3" stroke-width="1"/><path d="M12.15,3,9.758,5.614H5.614A2.622,2.622,0,0,0,3,8.228V23.914a2.622,2.622,0,0,0,2.614,2.614H26.528a2.622,2.622,0,0,0,2.614-2.614V8.228a2.622,2.622,0,0,0-2.614-2.614H22.384L19.992,3Zm3.921,19.607a6.536,6.536,0,1,1,6.536-6.536A6.538,6.538,0,0,1,16.071,22.607Z" fill="#235abf" stroke="#f3f3f3" stroke-width="1"/></g></g></svg>