<svg xmlns="http://www.w3.org/2000/svg" width="23" height="22.499" viewBox="0 0 23 22.499"><path d="M21.1,17.989a12.614,12.614,0,0,0-3.558-1.342l.006,0c-.1-.022-.188-.04-.282-.059-.062-.013-.123-.027-.183-.038-.566-.116-1.012-.189-1.255-.268-.639-.211-1.327-.434-1.327-1.334s-.012-1.017.206-1.137a1.407,1.407,0,0,0,.715-.868,21.165,21.165,0,0,1,.285-2.158c.131-.189.366-.028.447-.454a7.066,7.066,0,0,1,.155-.959A3.03,3.03,0,0,0,16.5,7.824c-.151-.316-.426-.151-.445-.347-.033-.319.553-3,.156-4.131a5.292,5.292,0,0,0-.7-1.253C15.222,1.052,13.23.494,12.731.28a4.143,4.143,0,0,0-2.962,0C8.772.787,8.5,1.469,8.084,1.735A2.42,2.42,0,0,0,6.806,3.346c-.4,1.134.19,3.812.158,4.131-.019.2-.295.031-.444.347A3.021,3.021,0,0,0,6.7,9.37a7.1,7.1,0,0,1,.159.959c.078.426.313.265.445.454a21.165,21.165,0,0,1,.285,2.158,1.4,1.4,0,0,0,.715.868c.217.12.206.238.206,1.137s-.687,1.123-1.328,1.334A17.267,17.267,0,0,0,1.9,17.989C-.131,19.152,0,22.5,0,22.5H23s.134-3.348-1.894-4.511" transform="translate(0 0)" fill="#999"/></svg>