<svg xmlns="http://www.w3.org/2000/svg" width="21.001" height="23" viewBox="0 0 21.001 23"><path d="M8.369,23a.214.214,0,0,1-.158-.072.226.226,0,0,1-.057-.174c0-.036.371-3.625.446-4.393a.116.116,0,0,0-.029-.089.112.112,0,0,0-.083-.037H8.472a10.119,10.119,0,0,1-1.1.107.746.746,0,0,1-.157-.012A12.991,12.991,0,0,1,4.8,16.3a6.048,6.048,0,0,1-.1-1.238.1.1,0,0,0-.1-.1.1.1,0,0,0-.026,0L.239,16.114a.192.192,0,0,1-.05.007A.188.188,0,0,1,0,15.933,9.019,9.019,0,0,1,2.188,9.989a4.887,4.887,0,0,1,3.522-1.1c.171,0,.344,0,.515.013h.012A.192.192,0,0,0,6.4,8.8,11.492,11.492,0,0,1,8.121,6.449C13.877.438,19.579.022,20.663,0a.2.2,0,0,1,.2.169c.193,1.089.879,6.86-4.607,13.588a11.989,11.989,0,0,1-1.879,1.834.194.194,0,0,0-.073.2c.209,1.054.427,2.991-.464,4.122A8.868,8.868,0,0,1,8.4,23ZM14.141,5.648a2.175,2.175,0,0,0-.331.026A2.105,2.105,0,0,0,12.073,7.43a2.142,2.142,0,0,0,.487,1.721,2.086,2.086,0,0,0,1.582.729,2.175,2.175,0,0,0,.331-.026A2.1,2.1,0,0,0,16.211,8.1a2.143,2.143,0,0,0-.487-1.722A2.086,2.086,0,0,0,14.141,5.648ZM3.175,21.816a5.936,5.936,0,0,1-.894-.06,7.078,7.078,0,0,1-.25-2.524A3.087,3.087,0,0,1,2.7,17.589a2.155,2.155,0,0,1,1.384-.827c.135,0,.225.045.259.13.1.252.009.362-.141.544a2.248,2.248,0,0,0-.528,1.119,2.131,2.131,0,0,0,.109,1.368c.009.018.013.025.012.027h0a.1.1,0,0,1,.023.007,1.074,1.074,0,0,0,.115.036,1.484,1.484,0,0,0,.368.043,2.483,2.483,0,0,0,.872-.177,2.322,2.322,0,0,0,1.018-.687c.131-.144.218-.24.385-.24a.6.6,0,0,1,.138.018.216.216,0,0,1,.149.16A2.058,2.058,0,0,1,6.287,20.7a3.04,3.04,0,0,1-1.5.926A6.466,6.466,0,0,1,3.175,21.816Z" transform="translate(0 0)" fill="#999"/></svg>