<?xml version="1.0" standalone="no"?>
<!DOCTYPE svg PUBLIC "-//W3C//DTD SVG 20010904//EN"
 "http://www.w3.org/TR/2001/REC-SVG-20010904/DTD/svg10.dtd">
<svg version="1.0" xmlns="http://www.w3.org/2000/svg"
 width="700.000000pt" height="700.000000pt" viewBox="0 0 700.000000 700.000000"
 preserveAspectRatio="xMidYMid meet">
<metadata>
Created by potrace 1.11, written by Peter Selinger 2001-2013
</metadata>
<g transform="translate(0.000000,700.000000) scale(0.100000,-0.100000)"
fill="#000000" stroke="none">
<path d="M152 6983 c-47 -23 -110 -99 -126 -152 -13 -39 -14 -525 -13 -3346
l2 -3300 23 -45 c30 -58 78 -109 119 -126 27 -12 551 -14 3351 -14 l3319 0 44
32 c51 37 61 48 91 108 l23 45 0 3315 0 3315 -28 55 c-18 35 -44 68 -74 90
l-46 35 -3326 2 c-3053 2 -3329 1 -3359 -14z m6339 -525 c1 -17 1 -5899 0
-5915 -1 -10 -606 -13 -2991 -13 -1644 0 -2990 3 -2991 8 0 9 0 5892 0 5915 1
16 150 17 2991 17 2385 0 2990 -3 2991 -12z"/>
<path d="M2125 5823 c-249 -32 -444 -126 -620 -297 -76 -74 -185 -215 -185
-239 0 -6 -6 -18 -14 -26 -33 -39 -99 -245 -114 -354 -10 -81 -6 -258 8 -334
72 -386 344 -699 715 -821 174 -58 338 -66 545 -28 80 15 206 64 295 115 112
64 185 126 296 251 67 76 151 233 188 355 34 109 43 161 46 290 10 359 -143
674 -434 892 -97 74 -287 159 -399 179 -20 4 -46 9 -57 11 -28 6 -234 11 -270
6z m251 -542 c137 -34 274 -142 342 -269 154 -289 9 -647 -305 -753 -94 -32
-235 -36 -323 -9 -197 59 -336 202 -385 395 -73 286 132 592 431 645 57 10
181 5 240 -9z"/>
<path d="M4598 5815 c-514 -86 -889 -534 -886 -1059 1 -54 5 -120 10 -145 5
-25 11 -62 14 -81 10 -57 69 -215 107 -282 121 -215 311 -384 531 -472 144
-58 208 -69 386 -69 146 0 176 3 263 26 420 112 732 468 784 896 55 443 -167
872 -557 1079 -79 41 -211 89 -270 98 -19 3 -42 7 -50 10 -33 12 -259 11 -332
-1z m343 -547 c125 -46 215 -116 283 -218 98 -150 112 -359 33 -515 -74 -146
-214 -257 -370 -292 -55 -12 -219 -9 -272 6 -50 14 -133 53 -170 81 -49 36
-133 129 -158 174 -87 156 -89 349 -5 510 40 76 146 182 219 219 139 70 308
83 440 35z"/>
<path d="M2060 3285 c-258 -44 -501 -193 -662 -405 -65 -85 -152 -264 -177
-365 -97 -384 5 -763 278 -1035 212 -212 479 -316 781 -305 190 6 373 66 535
173 245 163 416 436 464 737 10 62 7 274 -4 335 -24 134 -101 320 -178 429
-59 83 -172 199 -250 254 -125 89 -308 164 -451 186 -88 13 -251 11 -336 -4z
m296 -529 c177 -38 330 -170 393 -339 108 -292 -64 -612 -374 -698 -64 -18
-215 -18 -280 0 -186 51 -342 207 -390 390 -17 67 -17 188 2 259 51 195 233
362 433 395 53 9 158 6 216 -7z"/>
<path d="M4580 3285 c-389 -71 -714 -366 -824 -745 -33 -118 -36 -138 -41
-275 -18 -532 345 -978 880 -1080 67 -13 245 -13 330 0 339 52 641 280 789
596 38 80 82 224 92 298 4 25 7 102 6 171 0 490 -334 908 -819 1026 -91 22
-314 27 -413 9z m332 -536 c248 -69 416 -304 395 -552 -11 -131 -62 -240 -154
-332 -103 -103 -223 -155 -367 -160 -145 -4 -263 35 -370 122 -194 157 -249
418 -139 651 57 120 216 245 356 277 79 19 199 16 279 -6z"/>
</g>
</svg>
